<svg xmlns="http://www.w3.org/2000/svg" width="116" height="149" viewBox="0 0 116 149" shape-rendering="crispEdges">
  <rect width="116" height="149" fill="none"/>
  <path fill="#123a24" d="M44 8h28v8h16v8h8v16h8v40h-8v24h-8v16H72v8H44v-8H28v-16h-8V80h-8V40h8V24h8v-8h16z"/>
  <path fill="#35d07f" d="M44 16h28v8h16v16h8v40h-8v24h-8v8H64v8H48v-8H32v-8h-8V80h-8V40h8V24h20z"/>
  <path fill="#78f0aa" d="M40 24h28v8h16v16h8v16H76v-8H60v-8H36v8H24V40h8V32h8z"/>
  <path fill="#1f8f54" d="M24 80h8v16h8v8h16v8h24v-8h8v-8h8v8h-8v16H72v8H44v-8H28v-16h-8V80z"/>
  <path fill="#ffffff" d="M36 40h8v8h-8zM72 40h8v8h-8zM32 56h8v8h-8zM84 56h8v8h-8z"/>
  <path fill="#f7d56f" d="M52 72h12v8H52z"/>
</svg>
